# xmcd
#
# Track frame offsets: 
#        182
#        20332
#        36120
#        49542
#        66830
#        88677
#        101162
#        118302
#        131957
#        154865
#        169710
#        181267
#        194370
#        207662
#        231495
#        245290
#
# Disc length: 3705 seconds
#
# Revision: 2
# Processed by: cddbd v1.5.2PL0 Copyright (c) Steve Scherf et al.
# Submitted via: ExactAudioCopy v1.0b3
#
DISCID=e70e7710
DTITLE=Various Artist - Blues You Hate To Lose
DYEAR=1996
DGENRE=Blues
TTITLE0=Otis Spann - Country Boy Blues
TTITLE1=Robert Lockwood Jr. - Take A Little Walk With Me
TTITLE2=Memphis Slim - El Capitan
TTITLE3=Sammy Price - How Long Blues
TTITLE4=Lightnin' Hopkins - It's Your Own Fault
TTITLE5=Jazz Gillum - New Key To The Highway
TTITLE6=Arbee Stidham - Bad Luck And Troubles
TTITLE7=Jimmy Witherspoon - In The Evening
TTITLE8=Art Hodes - Mamie's Blues
TTITLE9=Browne McGhee and Sonny Terry - See See Rider
TTITLE10=Lowell Fulson - I've Been Mistreated
TTITLE11=Louis Jordan - I'm Gonna Move To The Outskirts Of Town
TTITLE12=Big Bill Broonzy - It's A Low Down Dirty Shame
TTITLE13=Carrie Smith - When I've Been Drinkin'
TTITLE14=Bo Diddley - Bring It To Jerome
TTITLE15=Muddy Waters - Goin' Down Slow
EXTD=
EXTT0=
EXTT1=
EXTT2=
EXTT3=
EXTT4=
EXTT5=
EXTT6=
EXTT7=
EXTT8=
EXTT9=
EXTT10=
EXTT11=
EXTT12=
EXTT13=
EXTT14=
EXTT15=
PLAYORDER=
